<mxfile host="app.diagrams.net" modified="2024-05-14T20:32:16.711Z" agent="Mozilla/5.0 (Windows NT 10.0; Win64; x64) AppleWebKit/537.36 (KHTML, like Gecko) Chrome/124.0.0.0 Safari/537.36" etag="DxOXSWnCFgLXiqnDiDEW" version="24.4.0" type="google" pages="3">
  <diagram name="characters" id="NCbXUKyJiZ6pThSKBXMy">
    <mxGraphModel dx="1842" dy="1230" grid="0" gridSize="10" guides="1" tooltips="1" connect="1" arrows="1" fold="1" page="0" pageScale="1" pageWidth="827" pageHeight="1169" math="0" shadow="0">
      <root>
        <mxCell id="0" />
        <mxCell id="1" parent="0" />
        <mxCell id="19-yHw1NpIefC7SFaMEE-1" style="edgeStyle=none;curved=1;rounded=0;orthogonalLoop=1;jettySize=auto;html=1;exitX=0;exitY=0.5;exitDx=0;exitDy=0;fontSize=12;startSize=8;endSize=8;" edge="1" parent="1" source="19-yHw1NpIefC7SFaMEE-2" target="19-yHw1NpIefC7SFaMEE-4">
          <mxGeometry relative="1" as="geometry" />
        </mxCell>
        <mxCell id="19-yHw1NpIefC7SFaMEE-2" value="&lt;span style=&quot;font-size: 16px;&quot;&gt;character 1&lt;/span&gt;" style="ellipse;whiteSpace=wrap;html=1;aspect=fixed;" vertex="1" parent="1">
          <mxGeometry x="47" y="72" width="80" height="80" as="geometry" />
        </mxCell>
        <mxCell id="19-yHw1NpIefC7SFaMEE-3" style="edgeStyle=none;curved=1;rounded=0;orthogonalLoop=1;jettySize=auto;html=1;exitX=0.5;exitY=1;exitDx=0;exitDy=0;fontSize=12;startSize=8;endSize=8;" edge="1" parent="1" source="19-yHw1NpIefC7SFaMEE-4" target="19-yHw1NpIefC7SFaMEE-18">
          <mxGeometry relative="1" as="geometry" />
        </mxCell>
        <mxCell id="19-yHw1NpIefC7SFaMEE-4" value="&lt;span style=&quot;font-size: 16px;&quot;&gt;character 2&lt;/span&gt;" style="ellipse;whiteSpace=wrap;html=1;aspect=fixed;" vertex="1" parent="1">
          <mxGeometry x="-89" y="78" width="80" height="80" as="geometry" />
        </mxCell>
        <mxCell id="19-yHw1NpIefC7SFaMEE-5" style="edgeStyle=none;curved=1;rounded=0;orthogonalLoop=1;jettySize=auto;html=1;exitX=0.5;exitY=0;exitDx=0;exitDy=0;fontSize=12;startSize=8;endSize=8;" edge="1" parent="1" source="19-yHw1NpIefC7SFaMEE-7" target="19-yHw1NpIefC7SFaMEE-2">
          <mxGeometry relative="1" as="geometry" />
        </mxCell>
        <mxCell id="19-yHw1NpIefC7SFaMEE-6" style="edgeStyle=none;curved=1;rounded=0;orthogonalLoop=1;jettySize=auto;html=1;exitX=0.5;exitY=1;exitDx=0;exitDy=0;fontSize=12;startSize=8;endSize=8;" edge="1" parent="1" source="19-yHw1NpIefC7SFaMEE-7" target="19-yHw1NpIefC7SFaMEE-14">
          <mxGeometry relative="1" as="geometry" />
        </mxCell>
        <mxCell id="19-yHw1NpIefC7SFaMEE-7" value="&lt;span style=&quot;font-size: 16px;&quot;&gt;character 3&lt;/span&gt;" style="ellipse;whiteSpace=wrap;html=1;aspect=fixed;" vertex="1" parent="1">
          <mxGeometry x="161" y="78" width="80" height="80" as="geometry" />
        </mxCell>
        <mxCell id="19-yHw1NpIefC7SFaMEE-8" style="edgeStyle=none;curved=1;rounded=0;orthogonalLoop=1;jettySize=auto;html=1;exitX=1;exitY=0.5;exitDx=0;exitDy=0;fontSize=12;startSize=8;endSize=8;" edge="1" parent="1" source="19-yHw1NpIefC7SFaMEE-9" target="19-yHw1NpIefC7SFaMEE-4">
          <mxGeometry relative="1" as="geometry" />
        </mxCell>
        <mxCell id="19-yHw1NpIefC7SFaMEE-9" value="&lt;span style=&quot;font-size: 16px;&quot;&gt;character 4&lt;/span&gt;" style="ellipse;whiteSpace=wrap;html=1;aspect=fixed;" vertex="1" parent="1">
          <mxGeometry x="-224" y="105" width="80" height="80" as="geometry" />
        </mxCell>
        <mxCell id="19-yHw1NpIefC7SFaMEE-10" style="edgeStyle=none;curved=1;rounded=0;orthogonalLoop=1;jettySize=auto;html=1;exitX=1;exitY=0.5;exitDx=0;exitDy=0;entryX=0;entryY=0.5;entryDx=0;entryDy=0;fontSize=12;startSize=8;endSize=8;" edge="1" parent="1" source="19-yHw1NpIefC7SFaMEE-11" target="19-yHw1NpIefC7SFaMEE-9">
          <mxGeometry relative="1" as="geometry" />
        </mxCell>
        <mxCell id="19-yHw1NpIefC7SFaMEE-11" value="&lt;font style=&quot;font-size: 16px;&quot;&gt;character 5&lt;/font&gt;" style="ellipse;whiteSpace=wrap;html=1;aspect=fixed;" vertex="1" parent="1">
          <mxGeometry x="-334" y="98" width="80" height="80" as="geometry" />
        </mxCell>
        <mxCell id="19-yHw1NpIefC7SFaMEE-12" style="edgeStyle=none;curved=1;rounded=0;orthogonalLoop=1;jettySize=auto;html=1;exitX=0;exitY=1;exitDx=0;exitDy=0;fontSize=12;startSize=8;endSize=8;" edge="1" parent="1" source="19-yHw1NpIefC7SFaMEE-14" target="19-yHw1NpIefC7SFaMEE-15">
          <mxGeometry relative="1" as="geometry" />
        </mxCell>
        <mxCell id="19-yHw1NpIefC7SFaMEE-13" style="edgeStyle=none;curved=1;rounded=0;orthogonalLoop=1;jettySize=auto;html=1;exitX=1;exitY=0;exitDx=0;exitDy=0;entryX=0.357;entryY=0.995;entryDx=0;entryDy=0;fontSize=12;startSize=8;endSize=8;entryPerimeter=0;" edge="1" parent="1" source="19-yHw1NpIefC7SFaMEE-14" target="19-yHw1NpIefC7SFaMEE-17">
          <mxGeometry relative="1" as="geometry" />
        </mxCell>
        <mxCell id="19-yHw1NpIefC7SFaMEE-14" value="&lt;span style=&quot;font-size: 16px;&quot;&gt;character 6&lt;/span&gt;" style="ellipse;whiteSpace=wrap;html=1;aspect=fixed;" vertex="1" parent="1">
          <mxGeometry x="231" y="197" width="80" height="80" as="geometry" />
        </mxCell>
        <mxCell id="19-yHw1NpIefC7SFaMEE-15" value="&lt;span style=&quot;font-size: 16px;&quot;&gt;character 7&lt;/span&gt;" style="ellipse;whiteSpace=wrap;html=1;aspect=fixed;" vertex="1" parent="1">
          <mxGeometry x="60" y="223" width="80" height="80" as="geometry" />
        </mxCell>
        <mxCell id="19-yHw1NpIefC7SFaMEE-16" style="edgeStyle=none;curved=1;rounded=0;orthogonalLoop=1;jettySize=auto;html=1;exitX=0;exitY=0.5;exitDx=0;exitDy=0;entryX=1;entryY=0.5;entryDx=0;entryDy=0;fontSize=12;startSize=8;endSize=8;" edge="1" parent="1" source="19-yHw1NpIefC7SFaMEE-17" target="19-yHw1NpIefC7SFaMEE-7">
          <mxGeometry relative="1" as="geometry" />
        </mxCell>
        <mxCell id="19-yHw1NpIefC7SFaMEE-17" value="&lt;span style=&quot;font-size: 16px;&quot;&gt;character 8&lt;/span&gt;" style="ellipse;whiteSpace=wrap;html=1;aspect=fixed;" vertex="1" parent="1">
          <mxGeometry x="315" y="78" width="80" height="80" as="geometry" />
        </mxCell>
        <mxCell id="19-yHw1NpIefC7SFaMEE-18" value="&lt;span style=&quot;font-size: 16px;&quot;&gt;character 9&lt;/span&gt;" style="ellipse;whiteSpace=wrap;html=1;aspect=fixed;" vertex="1" parent="1">
          <mxGeometry x="-84" y="211" width="80" height="80" as="geometry" />
        </mxCell>
        <mxCell id="19-yHw1NpIefC7SFaMEE-19" style="edgeStyle=none;curved=1;rounded=0;orthogonalLoop=1;jettySize=auto;html=1;exitX=1;exitY=0.5;exitDx=0;exitDy=0;entryX=0;entryY=0.5;entryDx=0;entryDy=0;fontSize=12;startSize=8;endSize=8;" edge="1" parent="1" source="19-yHw1NpIefC7SFaMEE-20" target="19-yHw1NpIefC7SFaMEE-11">
          <mxGeometry relative="1" as="geometry" />
        </mxCell>
        <mxCell id="19-yHw1NpIefC7SFaMEE-20" value="&lt;span style=&quot;font-size: 16px;&quot;&gt;character 10&lt;/span&gt;" style="ellipse;whiteSpace=wrap;html=1;aspect=fixed;" vertex="1" parent="1">
          <mxGeometry x="-455" y="92" width="80" height="80" as="geometry" />
        </mxCell>
      </root>
    </mxGraphModel>
  </diagram>
  <diagram id="ZLDovG7iaKBpHx1BG-J4" name="events">
    <mxGraphModel dx="2609" dy="1757" grid="0" gridSize="10" guides="1" tooltips="1" connect="1" arrows="1" fold="1" page="0" pageScale="1" pageWidth="827" pageHeight="1169" math="0" shadow="0">
      <root>
        <mxCell id="0" />
        <mxCell id="1" parent="0" />
        <mxCell id="2aq3oe5-vL01JRnpH_g0-1" style="edgeStyle=none;curved=1;rounded=0;orthogonalLoop=1;jettySize=auto;html=1;exitX=0.5;exitY=1;exitDx=0;exitDy=0;entryX=0.5;entryY=0;entryDx=0;entryDy=0;fontSize=12;startSize=8;endSize=8;" edge="1" parent="1" source="2aq3oe5-vL01JRnpH_g0-3" target="2aq3oe5-vL01JRnpH_g0-29">
          <mxGeometry relative="1" as="geometry" />
        </mxCell>
        <mxCell id="2aq3oe5-vL01JRnpH_g0-2" style="edgeStyle=none;curved=1;rounded=0;orthogonalLoop=1;jettySize=auto;html=1;exitX=0.5;exitY=1;exitDx=0;exitDy=0;entryX=0.5;entryY=0;entryDx=0;entryDy=0;fontSize=12;startSize=8;endSize=8;" edge="1" parent="1" source="2aq3oe5-vL01JRnpH_g0-3" target="2aq3oe5-vL01JRnpH_g0-22">
          <mxGeometry relative="1" as="geometry" />
        </mxCell>
        <mxCell id="2aq3oe5-vL01JRnpH_g0-3" value="&lt;span style=&quot;font-size: 16px;&quot;&gt;character 1&lt;/span&gt;" style="ellipse;whiteSpace=wrap;html=1;aspect=fixed;" vertex="1" parent="1">
          <mxGeometry x="-133" y="405" width="80" height="80" as="geometry" />
        </mxCell>
        <mxCell id="2aq3oe5-vL01JRnpH_g0-4" style="edgeStyle=none;curved=1;rounded=0;orthogonalLoop=1;jettySize=auto;html=1;exitX=0.5;exitY=1;exitDx=0;exitDy=0;fontSize=12;startSize=8;endSize=8;" edge="1" parent="1" source="2aq3oe5-vL01JRnpH_g0-5">
          <mxGeometry relative="1" as="geometry">
            <mxPoint x="472.03131198883057" y="530.5000610351562" as="targetPoint" />
          </mxGeometry>
        </mxCell>
        <mxCell id="2aq3oe5-vL01JRnpH_g0-5" value="&lt;span style=&quot;font-size: 16px;&quot;&gt;character 2&lt;/span&gt;" style="ellipse;whiteSpace=wrap;html=1;aspect=fixed;" vertex="1" parent="1">
          <mxGeometry x="470" y="405" width="80" height="80" as="geometry" />
        </mxCell>
        <mxCell id="2aq3oe5-vL01JRnpH_g0-6" style="edgeStyle=none;curved=1;rounded=0;orthogonalLoop=1;jettySize=auto;html=1;exitX=0.5;exitY=1;exitDx=0;exitDy=0;fontSize=12;startSize=8;endSize=8;" edge="1" parent="1" source="2aq3oe5-vL01JRnpH_g0-7" target="2aq3oe5-vL01JRnpH_g0-26">
          <mxGeometry relative="1" as="geometry" />
        </mxCell>
        <mxCell id="2aq3oe5-vL01JRnpH_g0-7" value="&lt;span style=&quot;font-size: 16px;&quot;&gt;character 3&lt;/span&gt;" style="ellipse;whiteSpace=wrap;html=1;aspect=fixed;" vertex="1" parent="1">
          <mxGeometry x="-817.5" y="409" width="80" height="80" as="geometry" />
        </mxCell>
        <mxCell id="2aq3oe5-vL01JRnpH_g0-8" style="edgeStyle=none;curved=1;rounded=0;orthogonalLoop=1;jettySize=auto;html=1;exitX=0.5;exitY=1;exitDx=0;exitDy=0;fontSize=12;startSize=8;endSize=8;" edge="1" parent="1" source="2aq3oe5-vL01JRnpH_g0-9" target="2aq3oe5-vL01JRnpH_g0-27">
          <mxGeometry relative="1" as="geometry" />
        </mxCell>
        <mxCell id="2aq3oe5-vL01JRnpH_g0-9" value="&lt;span style=&quot;font-size: 16px;&quot;&gt;character 4&lt;/span&gt;" style="ellipse;whiteSpace=wrap;html=1;aspect=fixed;" vertex="1" parent="1">
          <mxGeometry x="-656.5" y="405" width="80" height="80" as="geometry" />
        </mxCell>
        <mxCell id="2aq3oe5-vL01JRnpH_g0-10" style="edgeStyle=none;curved=1;rounded=0;orthogonalLoop=1;jettySize=auto;html=1;exitX=0.5;exitY=1;exitDx=0;exitDy=0;entryX=0.5;entryY=0;entryDx=0;entryDy=0;fontSize=12;startSize=8;endSize=8;" edge="1" parent="1" source="2aq3oe5-vL01JRnpH_g0-11" target="2aq3oe5-vL01JRnpH_g0-23">
          <mxGeometry relative="1" as="geometry" />
        </mxCell>
        <mxCell id="2aq3oe5-vL01JRnpH_g0-11" value="&lt;font style=&quot;font-size: 16px;&quot;&gt;character 5&lt;/font&gt;" style="ellipse;whiteSpace=wrap;html=1;aspect=fixed;" vertex="1" parent="1">
          <mxGeometry x="100" y="405" width="80" height="80" as="geometry" />
        </mxCell>
        <mxCell id="2aq3oe5-vL01JRnpH_g0-12" style="edgeStyle=none;curved=1;rounded=0;orthogonalLoop=1;jettySize=auto;html=1;exitX=0.5;exitY=1;exitDx=0;exitDy=0;entryX=0.5;entryY=0;entryDx=0;entryDy=0;fontSize=12;startSize=8;endSize=8;" edge="1" parent="1" source="2aq3oe5-vL01JRnpH_g0-13" target="2aq3oe5-vL01JRnpH_g0-28">
          <mxGeometry relative="1" as="geometry" />
        </mxCell>
        <mxCell id="2aq3oe5-vL01JRnpH_g0-13" value="&lt;span style=&quot;font-size: 16px;&quot;&gt;character 6&lt;/span&gt;" style="ellipse;whiteSpace=wrap;html=1;aspect=fixed;" vertex="1" parent="1">
          <mxGeometry x="-495.5" y="405" width="80" height="80" as="geometry" />
        </mxCell>
        <mxCell id="2aq3oe5-vL01JRnpH_g0-14" style="edgeStyle=none;curved=1;rounded=0;orthogonalLoop=1;jettySize=auto;html=1;exitX=0.5;exitY=1;exitDx=0;exitDy=0;entryX=0.5;entryY=0;entryDx=0;entryDy=0;fontSize=12;startSize=8;endSize=8;" edge="1" parent="1" source="2aq3oe5-vL01JRnpH_g0-15" target="2aq3oe5-vL01JRnpH_g0-25">
          <mxGeometry relative="1" as="geometry" />
        </mxCell>
        <mxCell id="2aq3oe5-vL01JRnpH_g0-15" value="&lt;span style=&quot;font-size: 16px;&quot;&gt;character 7&lt;/span&gt;" style="ellipse;whiteSpace=wrap;html=1;aspect=fixed;" vertex="1" parent="1">
          <mxGeometry x="384" y="413" width="80" height="80" as="geometry" />
        </mxCell>
        <mxCell id="2aq3oe5-vL01JRnpH_g0-16" style="edgeStyle=none;curved=1;rounded=0;orthogonalLoop=1;jettySize=auto;html=1;exitX=0.5;exitY=1;exitDx=0;exitDy=0;entryX=0.5;entryY=0;entryDx=0;entryDy=0;fontSize=12;startSize=8;endSize=8;" edge="1" parent="1" source="2aq3oe5-vL01JRnpH_g0-17" target="2aq3oe5-vL01JRnpH_g0-24">
          <mxGeometry relative="1" as="geometry" />
        </mxCell>
        <mxCell id="2aq3oe5-vL01JRnpH_g0-17" value="&lt;span style=&quot;font-size: 16px;&quot;&gt;character 8&lt;/span&gt;" style="ellipse;whiteSpace=wrap;html=1;aspect=fixed;" vertex="1" parent="1">
          <mxGeometry x="266" y="395" width="80" height="80" as="geometry" />
        </mxCell>
        <mxCell id="2aq3oe5-vL01JRnpH_g0-18" style="edgeStyle=none;curved=1;rounded=0;orthogonalLoop=1;jettySize=auto;html=1;exitX=0.5;exitY=1;exitDx=0;exitDy=0;entryX=0.5;entryY=0;entryDx=0;entryDy=0;fontSize=12;startSize=8;endSize=8;" edge="1" parent="1" source="2aq3oe5-vL01JRnpH_g0-19" target="2aq3oe5-vL01JRnpH_g0-30">
          <mxGeometry relative="1" as="geometry" />
        </mxCell>
        <mxCell id="2aq3oe5-vL01JRnpH_g0-19" value="&lt;font style=&quot;font-size: 16px;&quot;&gt;character 9&lt;/font&gt;" style="ellipse;whiteSpace=wrap;html=1;aspect=fixed;" vertex="1" parent="1">
          <mxGeometry x="-372" y="405" width="80" height="80" as="geometry" />
        </mxCell>
        <mxCell id="2aq3oe5-vL01JRnpH_g0-20" style="edgeStyle=none;curved=1;rounded=0;orthogonalLoop=1;jettySize=auto;html=1;exitX=0.5;exitY=1;exitDx=0;exitDy=0;entryX=0.5;entryY=0;entryDx=0;entryDy=0;fontSize=12;startSize=8;endSize=8;" edge="1" parent="1" source="2aq3oe5-vL01JRnpH_g0-21" target="2aq3oe5-vL01JRnpH_g0-29">
          <mxGeometry relative="1" as="geometry" />
        </mxCell>
        <mxCell id="2aq3oe5-vL01JRnpH_g0-21" value="&lt;span style=&quot;font-size: 16px;&quot;&gt;character 10&lt;/span&gt;" style="ellipse;whiteSpace=wrap;html=1;aspect=fixed;" vertex="1" parent="1">
          <mxGeometry x="-259" y="405" width="80" height="80" as="geometry" />
        </mxCell>
        <mxCell id="2aq3oe5-vL01JRnpH_g0-22" value="&lt;font style=&quot;font-size: 16px;&quot;&gt;event 6&lt;/font&gt;" style="whiteSpace=wrap;html=1;aspect=fixed;" vertex="1" parent="1">
          <mxGeometry x="-76" y="530" width="101" height="101" as="geometry" />
        </mxCell>
        <mxCell id="2aq3oe5-vL01JRnpH_g0-23" value="&lt;font style=&quot;font-size: 16px;&quot;&gt;event 1&lt;/font&gt;" style="whiteSpace=wrap;html=1;aspect=fixed;" vertex="1" parent="1">
          <mxGeometry x="89.5" y="530" width="101" height="101" as="geometry" />
        </mxCell>
        <mxCell id="2aq3oe5-vL01JRnpH_g0-24" value="&lt;font style=&quot;font-size: 16px;&quot;&gt;event 7&lt;/font&gt;" style="whiteSpace=wrap;html=1;aspect=fixed;" vertex="1" parent="1">
          <mxGeometry x="255.5" y="530" width="101" height="101" as="geometry" />
        </mxCell>
        <mxCell id="2aq3oe5-vL01JRnpH_g0-25" value="&lt;font style=&quot;font-size: 16px;&quot;&gt;event 2&lt;/font&gt;" style="whiteSpace=wrap;html=1;aspect=fixed;" vertex="1" parent="1">
          <mxGeometry x="421.5" y="526" width="101" height="101" as="geometry" />
        </mxCell>
        <mxCell id="2aq3oe5-vL01JRnpH_g0-26" value="&lt;font style=&quot;font-size: 16px;&quot;&gt;event 5&lt;/font&gt;" style="whiteSpace=wrap;html=1;aspect=fixed;" vertex="1" parent="1">
          <mxGeometry x="-828" y="544" width="101" height="101" as="geometry" />
        </mxCell>
        <mxCell id="2aq3oe5-vL01JRnpH_g0-27" value="&lt;font style=&quot;font-size: 16px;&quot;&gt;event 3&lt;/font&gt;" style="whiteSpace=wrap;html=1;aspect=fixed;" vertex="1" parent="1">
          <mxGeometry x="-659.5" y="544" width="101" height="101" as="geometry" />
        </mxCell>
        <mxCell id="2aq3oe5-vL01JRnpH_g0-28" value="&lt;font style=&quot;font-size: 16px;&quot;&gt;event 4&lt;/font&gt;" style="whiteSpace=wrap;html=1;aspect=fixed;" vertex="1" parent="1">
          <mxGeometry x="-506" y="544" width="101" height="101" as="geometry" />
        </mxCell>
        <mxCell id="2aq3oe5-vL01JRnpH_g0-29" value="&lt;font style=&quot;font-size: 16px;&quot;&gt;event 9&lt;/font&gt;" style="whiteSpace=wrap;html=1;aspect=fixed;" vertex="1" parent="1">
          <mxGeometry x="-217" y="530" width="101" height="101" as="geometry" />
        </mxCell>
        <mxCell id="2aq3oe5-vL01JRnpH_g0-30" value="&lt;font style=&quot;font-size: 16px;&quot;&gt;event 8&lt;/font&gt;" style="whiteSpace=wrap;html=1;aspect=fixed;" vertex="1" parent="1">
          <mxGeometry x="-382.5" y="534" width="101" height="101" as="geometry" />
        </mxCell>
      </root>
    </mxGraphModel>
  </diagram>
  <diagram id="32X6I8o-0eLYgBrLQ2B-" name="guilds">
    <mxGraphModel dx="2033" dy="1538" grid="0" gridSize="10" guides="1" tooltips="1" connect="1" arrows="1" fold="1" page="0" pageScale="1" pageWidth="827" pageHeight="1169" math="0" shadow="0">
      <root>
        <mxCell id="0" />
        <mxCell id="1" parent="0" />
        <mxCell id="1K4Ll0pOGxxxsnyxNsuH-1" value="&lt;span style=&quot;font-size: 16px;&quot;&gt;character 1&lt;/span&gt;" style="ellipse;whiteSpace=wrap;html=1;aspect=fixed;" vertex="1" parent="1">
          <mxGeometry x="230" y="407" width="80" height="80" as="geometry" />
        </mxCell>
        <mxCell id="1K4Ll0pOGxxxsnyxNsuH-2" value="&lt;span style=&quot;font-size: 16px;&quot;&gt;character 2&lt;/span&gt;" style="ellipse;whiteSpace=wrap;html=1;aspect=fixed;" vertex="1" parent="1">
          <mxGeometry x="572.5" y="379" width="80" height="80" as="geometry" />
        </mxCell>
        <mxCell id="1K4Ll0pOGxxxsnyxNsuH-3" value="&lt;span style=&quot;font-size: 16px;&quot;&gt;character 3&lt;/span&gt;" style="ellipse;whiteSpace=wrap;html=1;aspect=fixed;" vertex="1" parent="1">
          <mxGeometry x="794" y="367" width="80" height="80" as="geometry" />
        </mxCell>
        <mxCell id="1K4Ll0pOGxxxsnyxNsuH-4" value="&lt;span style=&quot;font-size: 16px;&quot;&gt;character 4&lt;/span&gt;" style="ellipse;whiteSpace=wrap;html=1;aspect=fixed;" vertex="1" parent="1">
          <mxGeometry x="-349.5" y="395" width="80" height="80" as="geometry" />
        </mxCell>
        <mxCell id="1K4Ll0pOGxxxsnyxNsuH-5" value="&lt;span style=&quot;font-size: 16px;&quot;&gt;character 9&lt;/span&gt;" style="ellipse;whiteSpace=wrap;html=1;aspect=fixed;" vertex="1" parent="1">
          <mxGeometry x="53" y="407" width="80" height="80" as="geometry" />
        </mxCell>
        <mxCell id="1K4Ll0pOGxxxsnyxNsuH-6" style="edgeStyle=none;curved=1;rounded=0;orthogonalLoop=1;jettySize=auto;html=1;exitX=0.5;exitY=0;exitDx=0;exitDy=0;entryX=0.5;entryY=1;entryDx=0;entryDy=0;fontSize=12;startSize=8;endSize=8;" edge="1" parent="1" source="1K4Ll0pOGxxxsnyxNsuH-7" target="1K4Ll0pOGxxxsnyxNsuH-4">
          <mxGeometry relative="1" as="geometry" />
        </mxCell>
        <mxCell id="1K4Ll0pOGxxxsnyxNsuH-7" value="&lt;font style=&quot;font-size: 16px;&quot;&gt;guild 6&lt;/font&gt;" style="whiteSpace=wrap;html=1;aspect=fixed;" vertex="1" parent="1">
          <mxGeometry x="-486" y="526" width="101" height="101" as="geometry" />
        </mxCell>
        <mxCell id="1K4Ll0pOGxxxsnyxNsuH-8" style="edgeStyle=none;curved=1;rounded=0;orthogonalLoop=1;jettySize=auto;html=1;exitX=0.5;exitY=0;exitDx=0;exitDy=0;entryX=0.5;entryY=1;entryDx=0;entryDy=0;fontSize=12;startSize=8;endSize=8;" edge="1" parent="1" source="1K4Ll0pOGxxxsnyxNsuH-10" target="1K4Ll0pOGxxxsnyxNsuH-1">
          <mxGeometry relative="1" as="geometry" />
        </mxCell>
        <mxCell id="1K4Ll0pOGxxxsnyxNsuH-9" style="edgeStyle=none;curved=1;rounded=0;orthogonalLoop=1;jettySize=auto;html=1;exitX=0.5;exitY=0;exitDx=0;exitDy=0;entryX=0.5;entryY=1;entryDx=0;entryDy=0;fontSize=12;startSize=8;endSize=8;" edge="1" parent="1" source="1K4Ll0pOGxxxsnyxNsuH-10" target="1K4Ll0pOGxxxsnyxNsuH-5">
          <mxGeometry relative="1" as="geometry" />
        </mxCell>
        <mxCell id="1K4Ll0pOGxxxsnyxNsuH-10" value="&lt;font style=&quot;font-size: 16px;&quot;&gt;guild 1&lt;/font&gt;" style="whiteSpace=wrap;html=1;aspect=fixed;" vertex="1" parent="1">
          <mxGeometry x="122" y="536" width="101" height="101" as="geometry" />
        </mxCell>
        <mxCell id="1K4Ll0pOGxxxsnyxNsuH-11" style="edgeStyle=none;curved=1;rounded=0;orthogonalLoop=1;jettySize=auto;html=1;exitX=0.5;exitY=0;exitDx=0;exitDy=0;entryX=0.5;entryY=1;entryDx=0;entryDy=0;fontSize=12;startSize=8;endSize=8;" edge="1" parent="1" source="1K4Ll0pOGxxxsnyxNsuH-12" target="1K4Ll0pOGxxxsnyxNsuH-4">
          <mxGeometry relative="1" as="geometry" />
        </mxCell>
        <mxCell id="1K4Ll0pOGxxxsnyxNsuH-12" value="&lt;font style=&quot;font-size: 16px;&quot;&gt;guild 7&lt;/font&gt;" style="whiteSpace=wrap;html=1;aspect=fixed;" vertex="1" parent="1">
          <mxGeometry x="-360" y="530" width="101" height="101" as="geometry" />
        </mxCell>
        <mxCell id="1K4Ll0pOGxxxsnyxNsuH-13" style="edgeStyle=none;curved=1;rounded=0;orthogonalLoop=1;jettySize=auto;html=1;exitX=0.5;exitY=0;exitDx=0;exitDy=0;entryX=0.5;entryY=1;entryDx=0;entryDy=0;fontSize=12;startSize=8;endSize=8;" edge="1" parent="1" source="1K4Ll0pOGxxxsnyxNsuH-14" target="1K4Ll0pOGxxxsnyxNsuH-2">
          <mxGeometry relative="1" as="geometry" />
        </mxCell>
        <mxCell id="1K4Ll0pOGxxxsnyxNsuH-14" value="&lt;font style=&quot;font-size: 16px;&quot;&gt;guild 2&lt;/font&gt;" style="whiteSpace=wrap;html=1;aspect=fixed;" vertex="1" parent="1">
          <mxGeometry x="562" y="530" width="101" height="101" as="geometry" />
        </mxCell>
        <mxCell id="1K4Ll0pOGxxxsnyxNsuH-15" style="edgeStyle=none;curved=1;rounded=0;orthogonalLoop=1;jettySize=auto;html=1;exitX=0.5;exitY=0;exitDx=0;exitDy=0;entryX=0.5;entryY=1;entryDx=0;entryDy=0;fontSize=12;startSize=8;endSize=8;" edge="1" parent="1" source="1K4Ll0pOGxxxsnyxNsuH-16" target="1K4Ll0pOGxxxsnyxNsuH-1">
          <mxGeometry relative="1" as="geometry" />
        </mxCell>
        <mxCell id="1K4Ll0pOGxxxsnyxNsuH-16" value="&lt;font style=&quot;font-size: 16px;&quot;&gt;guild 5&lt;/font&gt;" style="whiteSpace=wrap;html=1;aspect=fixed;" vertex="1" parent="1">
          <mxGeometry x="261" y="530" width="101" height="101" as="geometry" />
        </mxCell>
        <mxCell id="1K4Ll0pOGxxxsnyxNsuH-17" style="edgeStyle=none;curved=1;rounded=0;orthogonalLoop=1;jettySize=auto;html=1;exitX=0.5;exitY=0;exitDx=0;exitDy=0;entryX=0.5;entryY=1;entryDx=0;entryDy=0;fontSize=12;startSize=8;endSize=8;" edge="1" parent="1" source="1K4Ll0pOGxxxsnyxNsuH-18" target="1K4Ll0pOGxxxsnyxNsuH-3">
          <mxGeometry relative="1" as="geometry" />
        </mxCell>
        <mxCell id="1K4Ll0pOGxxxsnyxNsuH-18" value="&lt;font style=&quot;font-size: 16px;&quot;&gt;guild 3&lt;/font&gt;" style="whiteSpace=wrap;html=1;aspect=fixed;" vertex="1" parent="1">
          <mxGeometry x="709" y="524" width="101" height="101" as="geometry" />
        </mxCell>
        <mxCell id="1K4Ll0pOGxxxsnyxNsuH-19" style="edgeStyle=none;curved=1;rounded=0;orthogonalLoop=1;jettySize=auto;html=1;exitX=0.5;exitY=0;exitDx=0;exitDy=0;entryX=0.5;entryY=1;entryDx=0;entryDy=0;fontSize=12;startSize=8;endSize=8;" edge="1" parent="1" source="1K4Ll0pOGxxxsnyxNsuH-20" target="1K4Ll0pOGxxxsnyxNsuH-3">
          <mxGeometry relative="1" as="geometry" />
        </mxCell>
        <mxCell id="1K4Ll0pOGxxxsnyxNsuH-20" value="&lt;font style=&quot;font-size: 16px;&quot;&gt;guild 4&lt;/font&gt;" style="whiteSpace=wrap;html=1;aspect=fixed;" vertex="1" parent="1">
          <mxGeometry x="862.5" y="524" width="101" height="101" as="geometry" />
        </mxCell>
        <mxCell id="1K4Ll0pOGxxxsnyxNsuH-21" style="edgeStyle=none;curved=1;rounded=0;orthogonalLoop=1;jettySize=auto;html=1;exitX=0.5;exitY=0;exitDx=0;exitDy=0;entryX=0.5;entryY=1;entryDx=0;entryDy=0;fontSize=12;startSize=8;endSize=8;" edge="1" parent="1" source="1K4Ll0pOGxxxsnyxNsuH-22" target="1K4Ll0pOGxxxsnyxNsuH-4">
          <mxGeometry relative="1" as="geometry" />
        </mxCell>
        <mxCell id="1K4Ll0pOGxxxsnyxNsuH-22" value="&lt;font style=&quot;font-size: 16px;&quot;&gt;guild 9&lt;/font&gt;" style="whiteSpace=wrap;html=1;aspect=fixed;" vertex="1" parent="1">
          <mxGeometry x="-217" y="530" width="101" height="101" as="geometry" />
        </mxCell>
        <mxCell id="1K4Ll0pOGxxxsnyxNsuH-23" style="edgeStyle=none;curved=1;rounded=0;orthogonalLoop=1;jettySize=auto;html=1;exitX=0.5;exitY=0;exitDx=0;exitDy=0;entryX=0.5;entryY=1;entryDx=0;entryDy=0;fontSize=12;startSize=8;endSize=8;" edge="1" parent="1" source="1K4Ll0pOGxxxsnyxNsuH-24" target="1K4Ll0pOGxxxsnyxNsuH-1">
          <mxGeometry relative="1" as="geometry" />
        </mxCell>
        <mxCell id="1K4Ll0pOGxxxsnyxNsuH-24" value="&lt;font style=&quot;font-size: 16px;&quot;&gt;guild 8&lt;/font&gt;" style="whiteSpace=wrap;html=1;aspect=fixed;" vertex="1" parent="1">
          <mxGeometry x="418" y="530" width="101" height="101" as="geometry" />
        </mxCell>
        <mxCell id="1K4Ll0pOGxxxsnyxNsuH-25" style="edgeStyle=none;curved=1;rounded=0;orthogonalLoop=1;jettySize=auto;html=1;exitX=0.5;exitY=0;exitDx=0;exitDy=0;entryX=0.5;entryY=1;entryDx=0;entryDy=0;fontSize=12;startSize=8;endSize=8;" edge="1" parent="1" source="1K4Ll0pOGxxxsnyxNsuH-26" target="1K4Ll0pOGxxxsnyxNsuH-5">
          <mxGeometry relative="1" as="geometry" />
        </mxCell>
        <mxCell id="1K4Ll0pOGxxxsnyxNsuH-26" value="&lt;font style=&quot;font-size: 16px;&quot;&gt;guild 10&lt;/font&gt;" style="whiteSpace=wrap;html=1;aspect=fixed;" vertex="1" parent="1">
          <mxGeometry x="-27" y="536" width="101" height="101" as="geometry" />
        </mxCell>
      </root>
    </mxGraphModel>
  </diagram>
</mxfile>
